<?xml version="1.0" encoding="utf-8"?>
<!-- Generator: Adobe Illustrator 16.0.0, SVG Export Plug-In . SVG Version: 6.00 Build 0)  -->
<!DOCTYPE svg PUBLIC "-//W3C//DTD SVG 1.1//EN" "http://www.w3.org/Graphics/SVG/1.1/DTD/svg11.dtd">
<svg version="1.1" id="Layer_1" xmlns="http://www.w3.org/2000/svg" xmlns:xlink="http://www.w3.org/1999/xlink" x="0px" y="0px"
	 width="65.629px" height="66.905px" viewBox="0 0 65.629 66.905" enable-background="new 0 0 65.629 66.905" xml:space="preserve">
<path fill="none" stroke="#ABABAB" stroke-width="1.3" stroke-miterlimit="10" d="M58.458,63.583
	c-1.991-7.839-7.884-34.746-0.104-51.861c0.008-0.017,0.01-0.035,0.017-0.052c0.042-0.1,0.073-0.201,0.095-0.306
	c0.006-0.026,0.016-0.051,0.02-0.076c0.021-0.13,0.028-0.262,0.021-0.394c-0.002-0.024-0.009-0.048-0.011-0.071
	c-0.011-0.106-0.031-0.211-0.063-0.315c-0.011-0.037-0.023-0.073-0.037-0.109c-0.035-0.091-0.078-0.179-0.127-0.265
	c-0.013-0.021-0.019-0.046-0.033-0.069c-0.008-0.013-0.021-0.021-0.027-0.034c-0.014-0.021-0.021-0.042-0.037-0.062l-5.594-7.521
	c-0.327-0.44-0.844-0.7-1.395-0.7H6.238c-0.65,0-1.248,0.364-1.545,0.944l-3.856,7.522c-0.017,0.033-0.024,0.068-0.04,0.102
	c-0.02,0.044-0.037,0.088-0.053,0.135c-0.028,0.083-0.049,0.167-0.062,0.252c-0.009,0.04-0.018,0.079-0.021,0.12
	c-0.012,0.113-0.014,0.225-0.002,0.337c0,0.015-0.002,0.029,0,0.044c0.015,0.126,0.046,0.251,0.088,0.372
	c0.004,0.01,0.004,0.02,0.007,0.03c8.218,22.36,2.433,45.586,0.464,52.172c-0.113,0.379-0.322,1.084,0.208,1.789
	C1.752,66,2.268,66.255,2.811,66.255c0.008,0,0.016,0,0.022,0c0.471-0.006,0.815-0.168,1.071-0.396h51.979
	c0.247,0.184,0.569,0.311,0.993,0.311c0.536,0,1.042-0.248,1.371-0.671C58.773,64.824,58.613,64.193,58.458,63.583z"/>
<polygon fill="none" stroke="#ABABAB" stroke-miterlimit="10" points="7.301,5.218 50.309,5.218 53.32,9.268 5.223,9.268 "/>
<path fill="#ABABAB" d="M40.615,17.956c0,0.526-0.155,1.012-0.414,1.428c1.507,6.136-4.051,12.126-10.266,12.968
	c-7.427,1.006-11.035-6.005-11.432-12.338c-0.587-0.497-0.967-1.229-0.967-2.058c0-1.495,1.213-2.708,2.708-2.708
	s2.708,1.212,2.708,2.708c0,1.283-0.893,2.351-2.09,2.631c0.445,4.603,2.681,9.82,8.066,9.529c4.781-0.258,9.832-4.659,9.18-9.472
	c-0.067,0.004-0.133,0.02-0.203,0.02c-1.495,0-2.707-1.212-2.707-2.709c0-1.495,1.212-2.708,2.707-2.708
	C39.402,15.249,40.615,16.461,40.615,17.956z"/>
<circle fill="#FFFFFF" stroke="#ABABAB" stroke-miterlimit="10" cx="55.879" cy="9.75" r="9.25"/>
<g>
	<path fill="#ABABAB" d="M61.177,10.616h-4.688v4.689h-1.627v-4.689h-4.688V8.99h4.688V4.301h1.627V8.99h4.688V10.616z"/>
</g>
</svg>
