<?xml version="1.0" encoding="utf-8"?>
<!-- Generator: Adobe Illustrator 16.0.0, SVG Export Plug-In . SVG Version: 6.00 Build 0)  -->
<!DOCTYPE svg PUBLIC "-//W3C//DTD SVG 1.1//EN" "http://www.w3.org/Graphics/SVG/1.1/DTD/svg11.dtd">
<svg version="1.1" id="Layer_1" xmlns="http://www.w3.org/2000/svg" xmlns:xlink="http://www.w3.org/1999/xlink" x="0px" y="0px"
	 width="66.585px" height="54.026px" viewBox="0 0 66.585 54.026" enable-background="new 0 0 66.585 54.026" xml:space="preserve">
<path fill="none" stroke="#F27E48" stroke-miterlimit="10" d="M61.34,32.661L53.743,47.41l-0.458,0.889l-0.889-0.458l-23.19-11.944
	L54.87,53.331l11.022-16.228c0.346-0.51,0.215-1.203-0.295-1.551L61.34,32.661z"/>
<polygon fill="none" stroke="#F27E48" stroke-miterlimit="10" points="59.506,31.096 59.736,30.646 59.967,30.2 61.348,27.521 
	56.484,25.016 55.699,27.3 55.531,27.79 55.363,28.281 51.562,39.34 51.238,40.286 50.293,39.961 21.211,29.971 20.721,29.803 
	20.23,29.633 20.048,29.571 20.215,29.656 20.663,29.887 21.358,30.245 51.854,45.952 "/>
<polygon fill="none" stroke="#F27E48" stroke-miterlimit="10" points="20.303,27.944 20.793,28.113 49.617,38.016 53.505,26.698 
	53.674,26.208 53.842,25.718 54.586,23.553 54.75,23.075 54.914,22.597 56.354,18.407 50.061,16.245 49.459,19.788 49.371,20.305 
	49.284,20.822 49.01,22.435 48.918,22.977 48.826,23.519 47.631,30.561 47.463,31.547 46.477,31.379 21.458,27.133 20.917,27.041 
	20.375,26.949 15.987,26.204 15.47,26.116 14.953,26.029 14.506,25.953 14.919,26.095 15.397,26.259 15.875,26.423 19.813,27.775 
	"/>
<polygon fill="none" stroke="#F27E48" stroke-miterlimit="10" points="14.951,24.184 15.468,24.271 19.992,25.039 20.534,25.131 
	21.076,25.223 45.645,29.395 46.916,21.901 47.008,21.359 47.1,20.818 47.352,19.342 47.439,18.824 47.525,18.307 48.102,14.916 
	48.188,14.416 48.271,13.917 49.113,8.953 42.081,7.759 42.081,11.79 42.081,12.318 42.081,12.847 42.081,15.503 42.081,16.065 
	42.082,16.628 42.082,17.408 42.082,18.013 42.082,18.617 42.082,22.233 42.082,23.233 41.082,23.233 22.428,23.234 21.824,23.234 
	21.219,23.234 16.002,23.234 15.44,23.234 14.877,23.234 11.5,23.234 10.971,23.234 10.443,23.234 9.357,23.234 10.383,23.408 
	10.882,23.493 11.382,23.578 14.434,24.096 "/>
<path fill="none" stroke="#F27E48" stroke-miterlimit="10" d="M10.315,21.234h0.529h3.549h0.562h0.562h5.381h0.605h0.604
	l17.974-0.001v-4.295v-0.604V15.73v-0.616v-0.563v-0.562v-2.484v-0.529v-0.529V6.59V6.083V5.576V0.5L10.187,0.501h-1.97H1.616
	c-0.617,0-1.116,0.5-1.116,1.116l0.001,19.617h4.198h0.507h0.507h4.074H10.315z M36.551,17.787H24.448h-0.604H23.24h-4.752v-2.14
	h6.205h0.604h0.605H36.55L36.551,17.787L36.551,17.787z M36.551,11.945h-0.436h-1.09h-0.514h-0.58h-0.31h-0.89h-4.315h-0.605h-0.604
	h-6.906h-0.563h-0.562h-0.69v-2.14h1.792h0.562h0.563h7.258h0.604h0.511h0.694h0.399h0.491h0.6h3.176h1.414v0.486V11.945z
	 M36.551,3.947v1.029v0.507V5.99v0.097h-9.159h-1.539h-1.112h-0.428H23.65h-0.895h-0.562h-3.707V4.085V3.947h1.137h1.538h3.349
	h2.987h2.989H36.551z M6.101,18.947H5.594H5.086H4.031c0-2.707,0.856-5.118,2.192-6.694c0.194-0.229,0.4-0.435,0.614-0.627
	c0.189-0.17,0.384-0.324,0.586-0.462c0.345-0.236,0.708-0.424,1.086-0.559c-0.325-0.12-0.632-0.272-0.912-0.467
	c-0.158-0.11-0.304-0.236-0.445-0.367C6.996,9.625,6.857,9.464,6.726,9.295C6.193,8.61,5.863,7.761,5.863,6.827
	c0-1.425,0.742-2.672,1.856-3.391c0.178-0.115,0.363-0.217,0.558-0.303c0.172-0.076,0.354-0.128,0.538-0.179
	c0.348-0.098,0.708-0.167,1.088-0.167c2.231,0,4.04,1.809,4.04,4.04c0,1.739-1.104,3.208-2.645,3.778
	c0.634,0.227,1.227,0.601,1.762,1.101c0.134,0.126,0.264,0.261,0.391,0.402c0.129,0.144,0.253,0.294,0.373,0.453
	c1.136,1.496,1.868,3.627,1.938,6.015c0.004,0.124,0.013,0.246,0.013,0.372h-0.204H11.63h-0.529h-0.529L6.101,18.947L6.101,18.947z"
	/>
</svg>
