<?xml version="1.0" encoding="utf-8"?>
<!-- Generator: Adobe Illustrator 16.0.0, SVG Export Plug-In . SVG Version: 6.00 Build 0)  -->
<!DOCTYPE svg PUBLIC "-//W3C//DTD SVG 1.1//EN" "http://www.w3.org/Graphics/SVG/1.1/DTD/svg11.dtd">
<svg version="1.1" id="Layer_1" xmlns="http://www.w3.org/2000/svg" xmlns:xlink="http://www.w3.org/1999/xlink" x="0px" y="0px"
	 width="27.135px" height="62.404px" viewBox="0 0 27.135 62.404" enable-background="new 0 0 27.135 62.404" xml:space="preserve">
<path fill="none" stroke="#ABABAB" stroke-width="1.3" stroke-miterlimit="10" d="M26.479,55.991
	c0.074-0.777-0.494-1.47-1.272-1.544c-0.332-0.033-4.698-0.432-10.017,0.15v-9.875c2.938-0.016,5.205-0.309,6.693-0.586
	c1.153-0.215,2.064-1.439,2.064-2.613v-5.661c0-1.173-0.405-2.983-0.905-4.044l-2.612-5.537c-0.5-1.061-0.398-2.725,0.229-3.715
	l2.095-3.312c0.627-0.99,1.137-2.744,1.139-3.918c0.002-2.835,0.006-7.504-0.002-7.499c-2.09,0.912-4.582-0.041-5.494-2.131
	c-0.276-0.633-0.381-1.297-0.336-1.942c0.08-1.096,0.362-2.151,0.062-2.494c-0.099-0.111-0.192-0.219-0.272-0.31
	c-0.149-0.171-1.223-0.31-2.395-0.31h-3.362c-1.172,0-2.245,0.139-2.396,0.31C9.618,1.051,9.525,1.157,9.426,1.27
	c-0.3,0.343-0.018,1.398,0.061,2.494C9.533,4.41,9.428,5.074,9.152,5.706c-0.914,2.09-3.405,3.043-5.494,2.131
	c-0.01-0.005-0.006,4.664-0.004,7.499c0.003,1.174,0.512,2.928,1.139,3.918l2.096,3.312c0.627,0.99,0.729,2.654,0.229,3.715
	l-2.612,5.537c-0.5,1.061-0.905,2.871-0.905,4.044v5.661c0,1.174,0.912,2.398,2.064,2.613c1.488,0.277,3.756,0.57,6.693,0.586v9.924
	C6.854,53.995,2.27,54.413,1.93,54.447c-0.779,0.074-1.349,0.768-1.272,1.545c0.075,0.777,0.771,1.355,1.545,1.271
	c0.038-0.002,1.085-0.098,2.739-0.129c-1.303,0.568-2.547,1.241-3.69,2.047c-0.64,0.449-0.793,1.332-0.342,1.972
	c0.274,0.392,0.713,0.601,1.159,0.601c0.281,0,0.565-0.084,0.813-0.259c3.024-2.129,6.976-3.245,10.695-3.815
	c3.713,0.569,7.653,1.687,10.677,3.815c0.248,0.175,0.532,0.259,0.812,0.259c0.445,0,0.884-0.209,1.16-0.601
	c0.449-0.64,0.297-1.521-0.343-1.972c-1.142-0.806-2.387-1.478-3.688-2.045c1.654,0.029,2.701,0.125,2.738,0.129
	C25.711,57.339,26.402,56.77,26.479,55.991z"/>
<g>
	<path fill="#ABABAB" d="M16.026,11.302c0.282,0.297,0.491,0.633,0.627,1.005c0.136,0.371,0.204,0.776,0.204,1.212
		c0,0.95-0.303,1.726-0.907,2.325c-0.605,0.602-1.436,0.963-2.492,1.086v1.699h-0.707v-2.915c0.323-0.025,0.644-0.078,0.961-0.157
		c0.318-0.079,0.603-0.209,0.854-0.39c0.262-0.189,0.466-0.419,0.611-0.689c0.146-0.27,0.22-0.645,0.22-1.128
		c0-0.771-0.163-1.361-0.488-1.771c-0.326-0.411-0.801-0.616-1.427-0.616c-0.235,0-0.442,0.034-0.619,0.104
		s-0.306,0.135-0.388,0.196c0.025,0.123,0.06,0.3,0.104,0.531c0.043,0.23,0.065,0.407,0.065,0.53c0,0.189-0.082,0.362-0.246,0.519
		s-0.402,0.235-0.716,0.235c-0.276,0-0.474-0.096-0.592-0.285s-0.177-0.41-0.177-0.661c0-0.205,0.057-0.406,0.169-0.604
		c0.113-0.197,0.29-0.389,0.531-0.573c0.205-0.164,0.482-0.305,0.834-0.423s0.717-0.177,1.096-0.177
		c0.543,0,1.025,0.086,1.445,0.258C15.409,10.784,15.755,11.015,16.026,11.302z M14.182,20.644c0,0.287-0.104,0.532-0.312,0.734
		c-0.208,0.202-0.455,0.304-0.742,0.304s-0.534-0.102-0.742-0.304s-0.312-0.447-0.312-0.734s0.104-0.534,0.312-0.742
		s0.455-0.312,0.742-0.312s0.534,0.104,0.742,0.312C14.077,20.109,14.182,20.356,14.182,20.644z"/>
</g>
</svg>
