<?xml version="1.0" encoding="utf-8"?>
<!-- Generator: Adobe Illustrator 16.0.0, SVG Export Plug-In . SVG Version: 6.00 Build 0)  -->
<!DOCTYPE svg PUBLIC "-//W3C//DTD SVG 1.1//EN" "http://www.w3.org/Graphics/SVG/1.1/DTD/svg11.dtd">
<svg version="1.1" id="Layer_1" xmlns="http://www.w3.org/2000/svg" xmlns:xlink="http://www.w3.org/1999/xlink" x="0px" y="0px"
	 width="94.595px" height="53.197px" viewBox="0 0 94.595 53.197" enable-background="new 0 0 94.595 53.197" xml:space="preserve">
<path fill="none" stroke="#AAAAAA" stroke-width="1.3" stroke-miterlimit="10" d="M69.12,9.979c2.135-2.135,2.135-5.595,0-7.729
	s-5.595-2.135-7.729,0l-0.552,0.552l7.729,7.729L69.12,9.979z"/>
<polygon fill="none" stroke="#AAAAAA" stroke-width="1.3" stroke-miterlimit="10" points="43.173,20.467 39.861,31.509 
	50.903,28.198 "/>
<polygon fill="none" stroke="#AAAAAA" stroke-width="1.3" stroke-miterlimit="10" points="55.224,8.418 44.83,18.812 52.558,26.541 
	62.952,16.146 66.912,12.188 59.182,4.458 "/>
<g>
	<path fill="#ABABAB" stroke="#AAAAAA" stroke-miterlimit="10" d="M55.419,8.028c0.227-0.354,0.499-0.677,0.819-0.959l-0.015-0.017
		l-0.173-0.205L0.802,5.142L22.89,51.696l1.084-0.515L2.728,6.402L55.419,8.028z"/>
	<path fill="#ABABAB" stroke="#AAAAAA" stroke-miterlimit="10" d="M63.503,15.684c-0.23,0.329-0.508,0.625-0.823,0.885
		l30.293,35.923l0.918-0.773L63.503,15.684z"/>
</g>
<g>
	<path fill="#ABABAB" stroke="#AAAAAA" stroke-miterlimit="10" d="M41.8,23.43c0.035-0.589,0.137-1.173,0.352-1.717
		c-1.192,0.794-1.951,1.98-1.762,3.755c-3.145,0.029-2.998-5.966-7.15-5.198c-0.883,0.163-1.617,1.249-0.282,1.002
		c2.238-0.414,3.057,3.678,4.492,4.884c1.125,0.945,2.896,0.45,4.103,0.063c0.045-0.015,0.115-0.042,0.177-0.064
		C41.535,25.261,41.558,24.312,41.8,23.43z"/>
	<path fill="#ABABAB" stroke="#AAAAAA" stroke-miterlimit="10" d="M57.48,39.776c-2.011-1.092-4.332-1.596-6.148-3.039
		c-2.175-1.728-3.657-4.251-4.855-6.801c-0.015,0-0.029,0.002-0.045,0.002c-0.928,0-1.718-0.212-2.379-0.567
		c1.45,3.212,3.247,6.327,6.043,8.55c2.401,1.909,5.726,2.139,8.04,4.274c2.851,2.629-1.601,2.355-2.706,2
		c-1.021-0.328-2.017-0.698-3.066-0.923c-3.097-0.666-7.33-0.695-10.304,0.47c-0.994,0.39-1.889,0.809-2.811,1.352
		c-0.592,0.349-1.098-6.641-1.104-6.452c0.105-3.215,0.231-6.119-0.169-9.332c-0.751-6.019-9.672,1.104-4.649-7.535
		c0.439-0.755-1.492-0.518-1.789-0.006c-0.513,0.883-3.414,5.437-0.951,6.075c2.354,0.61,5.072-1.102,5.57,2.887
		c0.313,2.511-1.767,17.452,3.544,15.285c5.473-2.234,9.603-2.191,15.227-0.591c1.81,0.515,3.907,1.018,5.414-0.41
		C62.379,43.084,58.852,40.521,57.48,39.776z"/>
</g>
<g>
	<g>
		<path fill="#AAAAAA" d="M36.966,33.531c0.509,0.907,1.521,0.966,2.453,0.765c0.328-0.071,0.959-0.181,1.132-0.527
			c0.157-0.312-0.681-0.207-0.773-0.187c-0.272,0.059-0.669-0.191-0.881-0.568C38.628,32.533,36.808,33.25,36.966,33.531
			L36.966,33.531z"/>
	</g>
</g>
<g>
	<g>
		<path fill="#AAAAAA" d="M40.287,32.679c-0.154,0.65,0.168,1.312,0.734,1.651c0.425,0.255,0.996,0.176,1.385-0.116
			c0.307-0.23,0.524-0.748,0.103-1c-0.269-0.161-0.336-0.382-0.266-0.682c0.114-0.482-0.557-0.661-0.893-0.635
			C40.881,31.933,40.4,32.198,40.287,32.679L40.287,32.679z"/>
	</g>
</g>
<g>
	<g>
		<path fill="#AAAAAA" d="M42.299,32.864c0.39,0.55,0.83,0.759,1.5,0.78c0.452,0.015,0.979-0.138,1.366-0.366
			c0.319-0.188,0.255-0.368-0.102-0.379c-0.375-0.012-0.626-0.261-0.833-0.553C43.911,31.896,42.178,32.693,42.299,32.864
			L42.299,32.864z"/>
	</g>
</g>
<polygon fill="#ABABAB" stroke="#AAAAAA" stroke-miterlimit="10" points="41.432,27.772 44.265,30.272 39.861,31.509 "/>
<polygon fill="none" stroke="#AAAAAA" stroke-miterlimit="10" points="58.265,27.105 61.098,31.272 65.598,30.605 62.765,26.772 "/>
<polygon fill="none" stroke="#AAAAAA" stroke-miterlimit="10" points="63.265,35.105 66.097,39.272 70.597,38.605 67.765,34.772 "/>
</svg>
