<?xml version="1.0" encoding="utf-8"?>
<!-- Generator: Adobe Illustrator 16.0.0, SVG Export Plug-In . SVG Version: 6.00 Build 0)  -->
<!DOCTYPE svg PUBLIC "-//W3C//DTD SVG 1.1//EN" "http://www.w3.org/Graphics/SVG/1.1/DTD/svg11.dtd">
<svg version="1.1" id="Layer_1" xmlns="http://www.w3.org/2000/svg" xmlns:xlink="http://www.w3.org/1999/xlink" x="0px" y="0px"
	 width="94.596px" height="53.197px" viewBox="0 0 94.596 53.197" enable-background="new 0 0 94.596 53.197" xml:space="preserve">
<path fill="none" stroke="#F27E48" stroke-width="1.3" stroke-miterlimit="10" d="M69.12,9.979c2.135-2.135,2.135-5.595,0-7.729
	s-5.595-2.135-7.729,0l-0.553,0.552l7.729,7.729L69.12,9.979z"/>
<polygon fill="none" stroke="#F27E48" stroke-width="1.3" stroke-miterlimit="10" points="43.173,20.467 39.861,31.509 
	50.903,28.198 "/>
<polygon fill="none" stroke="#F27E48" stroke-width="1.3" stroke-miterlimit="10" points="55.224,8.418 44.83,18.812 52.558,26.541 
	62.952,16.146 66.912,12.188 59.182,4.458 "/>
<g>
	<path fill="#ABABAB" stroke="#F27E48" stroke-miterlimit="10" d="M55.419,8.028c0.228-0.354,0.499-0.677,0.819-0.959l-0.015-0.017
		L56.05,6.847L0.802,5.142L22.89,51.696l1.084-0.516L2.728,6.402L55.419,8.028z"/>
	<path fill="#ABABAB" stroke="#F27E48" stroke-miterlimit="10" d="M63.503,15.684c-0.229,0.329-0.508,0.625-0.822,0.885
		l30.293,35.923l0.918-0.773L63.503,15.684z"/>
</g>
<g>
	<path fill="#F27E48" stroke="#F27E48" stroke-miterlimit="10" d="M41.8,23.43c0.035-0.589,0.138-1.173,0.353-1.717
		c-1.192,0.794-1.951,1.98-1.762,3.755c-3.146,0.029-2.998-5.966-7.15-5.198c-0.883,0.163-1.617,1.249-0.282,1.002
		c2.238-0.414,3.058,3.678,4.492,4.884c1.125,0.944,2.896,0.45,4.104,0.062c0.045-0.015,0.114-0.042,0.177-0.063
		C41.535,25.261,41.558,24.312,41.8,23.43z"/>
	<path fill="#F27E48" stroke="#F27E48" stroke-miterlimit="10" d="M57.48,39.776c-2.011-1.092-4.332-1.596-6.148-3.039
		c-2.175-1.729-3.657-4.252-4.854-6.801c-0.016,0-0.029,0.002-0.045,0.002c-0.929,0-1.719-0.213-2.379-0.567
		c1.449,3.212,3.246,6.327,6.043,8.55c2.4,1.909,5.726,2.139,8.04,4.273c2.851,2.63-1.602,2.355-2.706,2
		c-1.021-0.327-2.018-0.697-3.066-0.922c-3.097-0.666-7.33-0.695-10.304,0.47c-0.994,0.39-1.89,0.809-2.812,1.352
		c-0.592,0.349-1.098-6.641-1.104-6.452c0.104-3.215,0.23-6.119-0.169-9.332c-0.751-6.019-9.672,1.104-4.649-7.535
		c0.439-0.755-1.492-0.518-1.789-0.006c-0.513,0.883-3.414,5.437-0.951,6.075c2.354,0.61,5.072-1.102,5.57,2.888
		c0.313,2.511-1.767,17.451,3.544,15.285c5.473-2.234,9.604-2.191,15.228-0.592c1.81,0.516,3.906,1.018,5.413-0.41
		C62.379,43.084,58.852,40.521,57.48,39.776z"/>
</g>
<g>
	<g>
		<path fill="#F27E48" d="M36.966,33.531c0.51,0.907,1.521,0.966,2.453,0.765c0.328-0.07,0.959-0.181,1.132-0.527
			c0.157-0.312-0.681-0.207-0.772-0.187c-0.272,0.06-0.669-0.19-0.881-0.567C38.628,32.533,36.808,33.25,36.966,33.531
			L36.966,33.531z"/>
	</g>
</g>
<g>
	<g>
		<path fill="#F27E48" d="M40.287,32.679c-0.154,0.65,0.168,1.312,0.734,1.651c0.425,0.255,0.996,0.176,1.385-0.116
			c0.307-0.23,0.524-0.748,0.103-1c-0.269-0.161-0.336-0.382-0.266-0.682c0.114-0.482-0.557-0.661-0.893-0.635
			C40.881,31.933,40.4,32.198,40.287,32.679L40.287,32.679z"/>
	</g>
</g>
<g>
	<g>
		<path fill="#F27E48" d="M42.299,32.864c0.391,0.55,0.83,0.759,1.5,0.779c0.452,0.016,0.979-0.138,1.366-0.365
			c0.319-0.188,0.255-0.368-0.102-0.379c-0.375-0.013-0.626-0.262-0.833-0.553C43.911,31.896,42.178,32.692,42.299,32.864
			L42.299,32.864z"/>
	</g>
</g>
<polygon fill="#F27E48" stroke="#F27E48" stroke-miterlimit="10" points="41.432,27.772 44.265,30.272 39.861,31.509 "/>
<polygon fill="none" stroke="#F27E48" stroke-miterlimit="10" points="58.265,27.104 61.098,31.272 65.598,30.604 62.765,26.772 "/>
<polygon fill="none" stroke="#F27E48" stroke-miterlimit="10" points="63.265,35.104 66.097,39.272 70.597,38.604 67.765,34.772 "/>
</svg>
