<?xml version="1.0" encoding="utf-8"?>
<!-- Generator: Adobe Illustrator 16.0.0, SVG Export Plug-In . SVG Version: 6.00 Build 0)  -->
<!DOCTYPE svg PUBLIC "-//W3C//DTD SVG 1.1//EN" "http://www.w3.org/Graphics/SVG/1.1/DTD/svg11.dtd">
<svg version="1.1" id="Layer_1" xmlns="http://www.w3.org/2000/svg" xmlns:xlink="http://www.w3.org/1999/xlink" x="0px" y="0px"
	 width="57.383px" height="47.432px" viewBox="0 0 57.383 47.432" enable-background="new 0 0 57.383 47.432" xml:space="preserve">
<g>
	<path fill="#F27E48" stroke="#F27E48" stroke-miterlimit="10" d="M12.708,13.108h34.103c0.896,0,1.625-0.729,1.625-1.625v-2.5
		c0.001-0.896-0.728-1.625-1.624-1.625H12.708c-0.896,0-1.625,0.729-1.625,1.625v2.5C11.083,12.379,11.812,13.108,12.708,13.108z
		 M12.333,8.983c0-0.207,0.168-0.375,0.375-0.375h34.103c0.207,0,0.375,0.168,0.375,0.375v2.5c0,0.207-0.168,0.375-0.375,0.375
		H12.708c-0.207,0-0.375-0.168-0.375-0.375V8.983z"/>
	<path fill="#F27E48" stroke="#F27E48" stroke-miterlimit="10" d="M56.158,5.104h-2.297v10.259h2.297
		c0.676,0,1.226-0.55,1.226-1.225V6.329C57.383,5.654,56.833,5.104,56.158,5.104z M56.158,14.138h-1.071V6.329h1.071V14.138z"/>
	<path fill="#F27E48" stroke="#F27E48" stroke-miterlimit="10" d="M7.402,26.632v4.451c0,0.34,0.273,0.613,0.612,0.613
		s0.613-0.273,0.613-0.613v-4.422c0.484-0.067,0.989-0.351,1.258-0.744l6.048-8.861c0.076-0.111,0.316-0.238,0.451-0.238h19.6
		v14.368c0,0.676,0.549,1.226,1.225,1.226h14.803c0.676,0,1.227-0.551,1.227-1.226V5.18c0-0.675-0.551-1.225-1.227-1.225h-2.564
		v-2.9c0-0.345-0.281-0.625-0.625-0.625H19.333c-0.345,0-0.625,0.28-0.625,0.625c0,0.345,0.28,0.625,0.625,0.625h28.862v2.275
		L10.536,3.956l0.001-0.346c0-0.627-0.429-1.146-0.977-1.216L9.555,2.347h0.109c0.676,0,1.225-0.526,1.225-1.173S10.34,0,9.664,0
		H6.099C5.424,0,4.874,0.527,4.874,1.174s0.55,1.173,1.225,1.173h0.229l0.051,0.052c-0.647,0-1.173,0.549-1.173,1.225v0.407H1.225
		C0.549,4.031,0,4.581,0,5.256v10.336c0,0.463,0.186,1.078,0.442,1.462l5.906,8.855C6.577,26.25,6.983,26.521,7.402,26.632z
		 M1.225,15.592V5.257h3.981c0.675,0,1.225-0.549,1.225-1.225L6.379,3.625c0.648,0,1.175-0.55,1.175-1.277
		c0-0.501-0.303-0.93-0.733-1.12h2.24C8.632,1.42,8.332,1.857,8.328,2.383c-0.001,0.348,0.13,0.681,0.36,0.913
		C8.861,3.47,9.079,3.577,9.311,3.605v0.352c0,0.676,0.549,1.225,1.225,1.225H52.01l0.001,26.005H37.208v-14.37
		c0-0.675-0.551-1.225-1.225-1.225H16.383c-0.542,0-1.158,0.325-1.464,0.773l-6.046,8.86c-0.076,0.112-0.318,0.239-0.452,0.239
		H7.808c-0.132,0-0.368-0.127-0.442-0.237l-5.905-8.854C1.342,16.195,1.225,15.808,1.225,15.592z"/>
	<path fill="#F27E48" stroke="#F27E48" stroke-miterlimit="10" d="M52.236,34.765H4.132c-0.896,0-1.625,0.729-1.625,1.625v2.5
		c0,0.896,0.729,1.625,1.625,1.625h48.104c0.896,0,1.625-0.729,1.625-1.625v-2.5C53.861,35.494,53.132,34.765,52.236,34.765z
		 M52.611,38.89c0,0.207-0.168,0.375-0.375,0.375H4.132c-0.207,0-0.375-0.168-0.375-0.375v-2.5c0-0.207,0.168-0.375,0.375-0.375
		h48.104c0.207,0,0.375,0.168,0.375,0.375V38.89z"/>
	<path fill="#F27E48" stroke="#F27E48" stroke-miterlimit="10" d="M47.82,41.557H8.708c-0.472,0-0.879,0.196-1.117,0.543
		c-0.239,0.346-0.281,0.797-0.114,1.237l1.043,2.754c0.284,0.75,1.136,1.341,1.938,1.341h36.239c0.834,0,1.646-0.638,1.844-1.449
		l0.648-2.682c0.11-0.444,0.022-0.888-0.24-1.222C48.687,41.748,48.277,41.557,47.82,41.557z M47.326,45.685
		c-0.062,0.26-0.363,0.496-0.629,0.496H10.458c-0.292,0-0.666-0.258-0.768-0.531l-1.043-2.754c-0.014-0.037-0.019-0.064-0.021-0.08
		c0.017-0.006,0.043-0.01,0.082-0.01H47.82c0.068,0,0.123,0.018,0.146,0.045c0.022,0.029,0.026,0.086,0.01,0.154L47.326,45.685z"/>
	<circle fill="#F27E48" stroke="#F27E48" stroke-miterlimit="10" cx="44.387" cy="25.229" r="3.583"/>
</g>
</svg>
