<?xml version="1.0" encoding="utf-8"?>
<!-- Generator: Adobe Illustrator 16.0.0, SVG Export Plug-In . SVG Version: 6.00 Build 0)  -->
<!DOCTYPE svg PUBLIC "-//W3C//DTD SVG 1.1//EN" "http://www.w3.org/Graphics/SVG/1.1/DTD/svg11.dtd">
<svg version="1.1" id="Layer_1" xmlns="http://www.w3.org/2000/svg" xmlns:xlink="http://www.w3.org/1999/xlink" x="0px" y="0px"
	 width="60.046px" height="52.824px" viewBox="0 0 60.046 52.824" enable-background="new 0 0 60.046 52.824" xml:space="preserve">
<path fill="none" stroke="#F27E48" stroke-miterlimit="10" d="M30.67,51.077c-1.538,1.529-4.021,1.529-5.551,0L3.495,30.796
	c-1.209-1.134-2.65-3.283-2.754-4.937C0.463,21.384,0.659,12.815,0.795,8.272C0.844,6.616,2.236,5.228,3.893,5.19
	c5.804-0.135,18.101-0.279,19.244,0.865l23.812,21.544c1.529,1.53,0.143,5.4-1.398,6.938L30.67,51.077z M11.721,11.771
	c-1.297-1.294-3.394-1.294-4.692,0c-1.294,1.298-1.294,3.394,0,4.688c1.299,1.295,3.396,1.295,4.692,0
	C13.016,15.165,13.016,13.068,11.721,11.771z"/>
<g>
	<path fill="#F27E48" stroke="#F27E48" stroke-miterlimit="10" d="M59.185,22.654L35.395,1.13C35.057,0.792,34.265,0,22.95,0
		c-2.782,0-5.471,0.049-7.237,0.09c-1.908,0.043-3.502,1.586-3.658,3.474c0.135-0.009,0.27-0.02,0.411-0.02
		c0.275,0,0.535,0.024,0.787,0.06c0.134-1.262,1.206-2.284,2.488-2.314C17.5,1.249,20.18,1.2,22.95,1.2
		c10.119,0,11.44,0.654,11.618,0.8l23.791,21.523c0.526,0.526,0.633,1.58,0.295,2.892c-0.317,1.232-0.982,2.488-1.716,3.221
		L42.081,46.152c-1.2,1.191-2.985,1.406-4.282,0.309c-0.153,0.379-0.582,0.581-0.823,0.909c0.787,0.608,1.737,0.955,2.749,0.955
		c1.208,0,2.345-0.469,3.225-1.346l14.858-16.517c0.865-0.864,1.635-2.3,2.008-3.747C60.269,24.956,60.053,23.521,59.185,22.654z"/>
</g>
</svg>
